<?xml version="1.0" encoding="utf-8"?>
<!-- Generator: Adobe Illustrator 19.0.0, SVG Export Plug-In . SVG Version: 6.00 Build 0)  -->
<svg version="1.1" id="Layer_2" xmlns="http://www.w3.org/2000/svg" xmlns:xlink="http://www.w3.org/1999/xlink" x="0px" y="0px"
	 viewBox="0 0 500 500" style="enable-background:new 0 0 500 500;" xml:space="preserve">
<style type="text/css">
	.st0{fill:#FFFFFF;}
</style>
<g id="XMLID_11_">
	<path id="XMLID_1_" class="st0" d="M390.2,374.8c-0.5-1-0.9-1.9-1.3-2.5c-6.8-12.2-19.7-27.1-38.8-44.8l-0.4-0.4l-0.2-0.2l-0.2-0.2
		h-0.2c-8.7-8.3-14.1-13.8-16.4-16.6c-4.2-5.4-5.1-10.9-2.8-16.4c1.6-4.2,7.7-13,18.3-26.6c5.5-7.2,9.9-12.9,13.2-17.2
		c23.4-31.1,33.5-51,30.4-59.7l-1.2-2c-0.8-1.2-2.9-2.3-6.3-3.3c-3.4-1-7.7-1.2-13-0.5l-58.4,0.4c-0.9-0.3-2.3-0.3-4.1,0.1
		c-1.8,0.4-2.6,0.6-2.6,0.6l-1,0.5l-0.8,0.6c-0.7,0.4-1.4,1.1-2.2,2.1c-0.8,1-1.5,2.2-2,3.6c-6.4,16.4-13.6,31.6-21.7,45.7
		c-5,8.4-9.6,15.7-13.8,21.8c-4.2,6.2-7.7,10.7-10.5,13.6c-2.8,2.9-5.4,5.2-7.7,7c-2.3,1.8-4.1,2.5-5.3,2.2
		c-1.2-0.3-2.4-0.5-3.5-0.8c-1.9-1.2-3.4-2.9-4.6-5c-1.2-2.1-1.9-4.7-2.3-7.9c-0.4-3.2-0.6-5.9-0.7-8.2c-0.1-2.3,0-5.5,0.1-9.7
		c0.1-4.2,0.2-7,0.2-8.5c0-5.1,0.1-10.7,0.3-16.7c0.2-6,0.4-10.8,0.5-14.3c0.1-3.5,0.2-7.2,0.2-11.2s-0.2-7-0.7-9.2
		c-0.5-2.2-1.2-4.4-2.1-6.5c-0.9-2.1-2.3-3.7-4.2-4.9c-1.8-1.1-4.1-2.1-6.8-2.7c-7.2-1.6-16.3-2.5-27.4-2.6
		c-25.2-0.3-41.3,1.4-48.5,4.9c-2.8,1.5-5.4,3.5-7.7,6.1c-2.4,3-2.8,4.6-1,4.9c8.1,1.2,13.9,4.1,17.2,8.7l1.2,2.4
		c0.9,1.8,1.9,4.9,2.8,9.3c0.9,4.5,1.6,9.4,1.8,14.8c0.7,9.9,0.7,18.3,0,25.4c-0.7,7-1.3,12.5-1.9,16.4c-0.6,3.9-1.5,7.1-2.7,9.5
		c-1.2,2.4-2,3.9-2.4,4.5c-0.4,0.5-0.7,0.9-1,1c-1.8,0.7-3.6,1-5.5,1c-1.9,0-4.2-0.9-6.9-2.8c-2.7-1.9-5.5-4.5-8.4-7.8
		c-2.9-3.3-6.2-7.9-9.8-13.9c-3.7-6-7.4-13-11.4-21.1l-3.2-5.9c-2-3.8-4.8-9.3-8.3-16.5c-3.5-7.2-6.6-14.2-9.3-21
		c-1.1-2.8-2.7-5-4.9-6.5l-1-0.6c-0.7-0.5-1.8-1.1-3.2-1.7c-1.5-0.6-3-1-4.7-1.3l-55.6,0.4c-5.7,0-9.5,1.3-11.6,3.9l-0.8,1.2
		c-0.4,0.7-0.6,1.8-0.6,3.2c0,1.5,0.4,3.3,1.2,5.5c8.1,19.1,16.9,37.5,26.5,55.2c9.5,17.7,17.8,32,24.9,42.8
		c7,10.8,14.2,21,21.5,30.6c7.3,9.6,12.1,15.8,14.5,18.5c2.4,2.7,4.2,4.7,5.6,6.1l5.1,4.9c3.2,3.2,8,7.1,14.3,11.7
		c6.3,4.5,13.3,9,20.9,13.4c7.6,4.4,16.5,8,26.7,10.7c10.1,2.8,20,3.9,29.6,3.4h23.3c4.7-0.4,8.3-1.9,10.8-4.5l0.8-1
		c0.5-0.8,1.1-2.1,1.5-3.7c0.5-1.7,0.7-3.6,0.7-5.6c-0.1-5.8,0.3-11.1,1.3-15.7c1-4.7,2.2-8.2,3.5-10.6c1.3-2.4,2.7-4.4,4.4-6
		c1.6-1.6,2.8-2.6,3.5-2.9c0.7-0.3,1.2-0.6,1.6-0.7c3.2-1.1,7.1,0,11.5,3.1c4.4,3.2,8.5,7.1,12.4,11.8c3.9,4.7,8.5,9.9,13.9,15.7
		c5.4,5.8,10.1,10.1,14.2,13l4.1,2.4c2.7,1.6,6.2,3.1,10.6,4.5c4.3,1.4,8.1,1.7,11.4,1l51.9-0.8c5.1,0,9.1-0.9,12-2.5
		c2.8-1.7,4.5-3.6,5.1-5.6c0.5-2,0.6-4.3,0.1-6.9C391.2,377.7,390.7,375.9,390.2,374.8z"/>
</g>
<g id="XMLID_2_">
	<path id="XMLID_8_" class="st0" d="M429.1,193.8c-1.6-5.8-3.9-11.3-6.9-16.4c-3-5.1-6.5-9.7-10.7-13.9c-4.2-4.2-8.8-7.7-13.9-10.7
		c-5.1-3-10.5-5.3-16.4-6.9c-3.9-1.1-7.9-1.8-12-2.2c-3.3-0.3-6.2,2.4-6.2,5.7v0c0,2.9,2.2,5.4,5.2,5.7c3.4,0.3,6.7,0.9,10,1.8
		c4.9,1.4,9.4,3.3,13.7,5.8c4.2,2.5,8.1,5.4,11.6,8.9c3.5,3.5,6.5,7.3,8.9,11.6c2.5,4.2,4.4,8.8,5.8,13.7c0.9,3.3,1.5,6.6,1.8,10
		c0.3,2.9,2.7,5.2,5.7,5.2h0c3.3,0,6-2.9,5.7-6.2C430.9,201.7,430.2,197.7,429.1,193.8z"/>
	<path id="XMLID_9_" class="st0" d="M462.2,184.6c-2.4-8.8-5.9-17-10.4-24.6c-4.5-7.6-9.8-14.5-16.1-20.8
		c-6.2-6.2-13.2-11.6-20.8-16.1c-7.6-4.5-15.8-7.9-24.6-10.4c-6.9-1.9-14.1-3.1-21.4-3.5c-3.2-0.2-6,2.5-6,5.7v0
		c0,3.1,2.4,5.5,5.5,5.7c6.4,0.4,12.7,1.4,18.8,3.1c7.8,2.2,15,5.3,21.8,9.2c6.8,4,13,8.8,18.5,14.3c5.6,5.6,10.3,11.7,14.3,18.5
		c4,6.8,7.1,14.1,9.2,21.8c1.7,6.1,2.7,12.3,3.1,18.8c0.2,3.1,2.6,5.5,5.7,5.5c3.3,0,5.9-2.7,5.7-6
		C465.3,198.7,464.1,191.5,462.2,184.6z"/>
	<path id="XMLID_10_" class="st0" d="M495.2,175.6c-3.3-11.7-7.9-22.6-13.8-32.8c-6-10.2-13.1-19.4-21.4-27.8
		c-8.3-8.3-17.6-15.5-27.8-21.4c-10.2-6-21.1-10.6-32.8-13.8c-9.8-2.8-20-4.4-30.5-4.8c-3.2-0.1-5.9,2.5-5.9,5.7v0
		c0,3.1,2.4,5.6,5.5,5.7c9.6,0.4,18.9,1.9,27.8,4.4c10.7,3,20.7,7.2,30,12.7c9.3,5.4,17.8,12,25.5,19.7c7.7,7.7,14.2,16.2,19.7,25.5
		c5.4,9.3,9.7,19.3,12.7,30c2.5,9,4,18.3,4.4,27.8c0.1,3.1,2.6,5.5,5.7,5.5h0c3.2,0,5.8-2.7,5.7-5.9
		C499.6,195.6,498,185.4,495.2,175.6z"/>
</g>
</svg>
